<?xml version="1.0" encoding="UTF-8"?>
<svg id="Layer_2" data-name="Layer 2" xmlns="http://www.w3.org/2000/svg" viewBox="0 0 615.83 377.03">
  <defs>
    <style>
      .cls-1 {
        fill: #000;
        stroke-width: 0px;
      }
    </style>
  </defs>
  <g id="Layer_1-2" data-name="Layer 1">
    <path class="cls-1" d="M158.84,375.5c-26.37-4.54-45.96-21.55-52.16-45.74-3.32-22.93-1.59-49.7-2.87-73.22,1.23-18.73-15.21-25.4-26.3-12.67-4.28,3.95-6.48,8.47-5.93,14.26-.23,10.6-.05,27.8.15,38.81.32,7.21-.42,15.78,3.76,18.58,2.88,3.59,13.1,6.94.69,7.35-11.73.43-23.7.29-35.62.12-5.59-.41-12.03.37-10.73-1.33,2.7-3.06,8.97-7.43,9.59-12.06.98-4.24.68-42.86.68-57.4-.71-6.59,1.13-51.54-1.16-56.9-1.56-1.68-3.33-3.54-5.22-4.9-1.89-1.68-4.89-1.81-3.99-4.11,2.34-2.76,7.15-4.1,10.66-5.49,9.29-3.44,16.75-6.9,22.26-10.29,2.11-1.06,4.33-3.58,6.63-3.02,3.74,6.42,1.39,22.01,2.08,32.34-.05,9.85.09,29.85.42,36.53.3,1.17-.64,2.55,1.71.71,14.3-14.31,39.91-18.6,53.23-6.48,10.36,7.78,8.12,23.04,8.66,34.99.4,30.82-3.07,81.76,17.37,96.1,15.91,13.58,45.45,14.69,56.73-1.86,5.01-6.64,7.93-16.63,14.3-22.13,7.03-5.87,18.42-3.76,22.8,3.99,8.7,36.41-62.11,37.75-87.57,33.84M188.58,323.1c-23.22-4.78-36.8-23.74-37-46.53-.19-9.32,1.11-19.8,5.1-27.97,14.29-30.06,62.78-33.57,84.07-9.46,10.33,11.18,12.77,27.63,11.23,42.57-1.69,18.9-12.72,34.36-31.22,39.98-7.58,2-24.35,2.74-32.02,1.44M208.95,316.68c12.98-8.98,11.84-57.48,7.44-72.66-3.31-11.69-9.56-17.09-18.95-14.06-16.71,7.85-14.42,58.48-9.48,74.6,1.44,5.11,5.44,11.35,9.25,13.3,3.03,1.69,8.16.83,11.61-1.11M287.39,322.32c-8.93-2.9-14.56-9.84-17.66-18.06,0-4.16-.52-22.15-.61-29.96-.69-8.82,1.09-28.32-5.02-31.47-3.25-1.86-6.04-4.39-.33-6.12,41.85-10.1,36.91-28.49,37.51,15.65.06,10.75-.01,21.64.12,32.29.41,7.71-.69,15.36,2.81,20.32,5.42,8.07,18.64,5.71,24.2-1.89,1.63-1.96,3.15-4.38,4.64-6.6.63-.98.5-1.13.5-2.25-.2-11.62-.24-23.9-.57-34.26-.13-8.34-1.23-16.18-5.38-17.74-.88-.53-1.74-1.02-2.54-1.96-1.82-1.98.17-3.34,2.11-3.39,5.63-1.11,21.01-6.58,28.65-10.25,2.64-1.05,5.26-2.37,7.26-2.17.66.33.69,1.18.98,3.32.99,18.33.12,43.22.72,61.1.66,16,1.47,18.43,10.39,17.11,1.91-.43,5.53-4.27,7.21-1.93-1.03,4.09-4.81,8.8-7.89,11.94-10.56,9.34-34.65,10.66-40.59-4.78-.83-7.45-9.18,11.31-30.1,12.54-5.33.4-11.24.49-16.24-1.38M415.32,322.93c-11.96-2.02-23.49-7.17-26.32-16.02-1.17-4.44-.54-10.82,1.83-14.5,3.84-5.24,11.29-7.57,16.83-5.04,5.63,2.13,6.23,8.09,7.03,13.42,1.7,10.06,8.07,16.65,17.59,17.95,5.81.94,12.61-1.38,15.57-6.58,2.01-3.41,2.22-7.63-.11-11.45-3.07-5.18-9.4-7.65-15.7-10.64-5.62-2.58-11.33-4.83-16.98-7.48-15.74-7.38-22.59-13.79-24.75-23.36-4.53-18.67,10.4-31.16,27.75-34.1,20.55-3.85,52.29-2.27,56.57,17.62.53,3.34-.12,6.61-2.05,9.23-3.32,4.47-10.08,6.58-15.07,3.74-10.22-5-8.81-24.48-20.99-26.8-8.78-2.52-19.93,4.21-18.84,13.47.22,6.38,8.75,12.21,15.81,14.99,18.8,7.29,41.25,15.42,43.61,31.27,1.5,6.28,1.61,13.65-2.21,19.25-5.97,8.57-13.38,12.73-24.94,14.83-10.04,1.72-24.02,1.54-34.43.22M520.68,322.18c-26.79-6.88-36.8-32.41-33.13-58.35,2.58-19.1,16.16-33.98,35.14-38.33,9.58-2.33,23.43-2.7,32.96.45,10.11,3.48,18.19,11.19,22.6,21.48,2.49,5.62,5.06,13.7,3.05,17.74-.37,2.49-9.49,2.97-15.13,3.54-10.55.95-31.35,2.53-41.03,3.63-7.78.02-6.37,6.42-4.47,12,3,8.73,9.19,15.87,17.78,19.1,6.41,2.15,13.86,1.77,20.74,1.02,21.84-3.6,39.31-22.52,44.04-45.24,1.7-10.32,1.38-21.99-2.25-31.78-7.48-16.94-19.9-25.35-40.03-25.63-2.68-.1-5.16-.11-7.88-.27-5.12-.52-7.05-.05-9.98-2.39-4.67-3.92-6.11-12.48-2.92-18.23,2.93-5.08,7.07-7.28,13.75-8.02,17.28-1.46,34,4.23,45.5,16.87,15.75,15.73,19.73,44.5,13.76,68.6-9.67,43.68-48.9,73.85-92.34,63.86M537.05,264.54c4.24-.49,12.67-1.87,13.84-2.53.76-.38.94-1.03,1.16-1.94.27-1.3.28-3,.28-4.74,0-5.4-.72-12.39-2.55-16.98-2.26-5.92-6.12-10.39-12.42-9.86-4.91.54-9.2,3.21-11.91,7.32-3.97,5.83-6.34,13.94-6.82,21.14-.09,3.06-.5,5.4.83,7.77.93,1.14,1.47,1.51,5.61,1.18,3.99-.34,7.6-.83,11.74-1.33M167.2,211.57c-46.22-6.99-71.1-52.52-46.49-89.31,5.4-6.97,12.26-12.68,20.2-16.94,1.28-.77,2.92-1.38,2.55-2.68-.12-12.49-.3-28.94-.45-40.3-.03-9.41-.3-17.46-6.43-19.93-1.21-1.02-5.98-3.35-4.22-5.09,2.8-1.7,7.05-3.13,10.31-4.34,10.9-3.72,21.98-10.03,30.83-14.35,1.3-.19,1.91.11,2.47.64,2.25,6,1.06,26.99,1.41,37.81.45,7.55-.87,33.21.47,42.7,19.26,2.76,39.36,16.71,38.02,37.22.15,8.49.55,16.93-4.3,24.29-5.2,9.49-12.77,15.55-21.47,17.21-10.76,2.99-23.28-5.39-21.26-17.21.99-13.01,19.14-9,24.24-18.23,10.86-20.04-6.32-42.59-27.97-37.32-17.18,3.09-26.06,23.84-26.34,40.61-3.72,31.51,17.96,62.56,51.76,58.39,57.67-6.44,49.05-97.93,43.67-141.74-7.64-37.56-27.25-55.45-59.39-57.12-17.92-.99-36.98,5.08-49.6,17.43-10.84,9.5-17.92,29.76-14.26,41.93,1.73,6.36,5.83,9.91,11.59,7.83,2.3-.86,4.76-2.32,7-.64,13.97,10.26-1.81,30.4-16.55,27.32-28.65-4.08-33.54-39.61-20.35-61.78,29.55-51.57,145.36-51.65,169.16,6.29,9.72,20.51,11.82,42.82,12.01,67.25,2.85,73.19-31.79,108.37-106.45,100.11M400.43,211.33c2.36-3.22,6.86-6.86,9.82-9.76.78-.8,1-.78,1.08-1.37.02-19.96.01-65.05-.07-84.77-.28-23.57-.12-35.91-1.16-40-.34-.94-1.4-2.98-2.54-4.19-1.22-1.39-2.83-2.37-4.2-3.64-1.35-1.22-1.77-2.04-.97-2.66,1.57-1,5.03-1.65,7.08-2.15,7.48-1.86,17.97-5.77,25.66-9.54,2.44-1.05,5.46-2.71,7.91-2.46.46.38.76,1.83.98,6.37.19,4.01.3,10.43.37,20.64.19,25.81-.01,70.9.16,93.82.11,22.47.47,32.72,6.17,34.77,1.23.95,3.72,2.28,4.49,3.76.24.72-.57,1.18-2.86,1.48-4.63.49-9.61.45-14.39.5-8.93.03-19.22.04-28.14-.15-5.39-.23-8.97-.04-9.38-.62M463.88,210.94c.05-.64,1.81-2.13,2.68-2.78,9.01-7.1,7.96-8.11,8.56-26.41.18-15,.13-29.41.15-44.69.01-15.12-.07-54.69-1.01-58.98-.64-4.34-4.2-7.4-7.43-10.36-3.56-3.09,1.69-3.93,4.04-4.49,6.89-1.56,17.05-5.09,24.32-8.46,3.33-1.48,7.35-3.74,10.84-4.21.1,0,.15.03.19.06.46.54.75,4.12.97,13.34.41,19.94.44,43.04.54,64.69.07,19.81.12,30.85.24,44.28.23,23.89.64,26.6,1.87,28.76,1.76,2.72,4.24,4.79,7,6.83.76.61,1.65,1.31,2.22,2,.72.9.18.83-.64.98-5.47.74-31.18.9-45.28.48-5.05-.31-8.71-.03-9.27-.94M329.54,210.15c-25.64-3.47-40.76-21.81-42.55-46.85-2.31-24.99,9.58-48.85,35.1-56.35,8.59-2.54,18.81-2.08,27.43-1.55,9.23.74,18.29,5.11,25.58,10.56,8.31,6.39,13.59,15.79,16.3,26.76,3.6,14.99,1.94,31.96-5.68,45.55-5.5,9.34-17.26,17.74-28.54,20.55-8.37,1.9-20.12,2.31-27.46,1.36M358.38,167.86c0-14.33.51-41.49-4.94-48.36-2.87-6.45-11.73-9.75-18.31-7.42-11.78,5.35-13.08,18.13-13.56,37.54-.18,15.76-.46,35.05.41,49.79-.02,1.61,5.75,1.56,8.5,1.67,3.6.08,7.36.07,10.96.07,3.3-.15,14.69.28,16.89-.15.15-3.79,0-28.4.05-33.02M26.45,153.63c-1.39-5.14-5.85-7.34-10.87-8.48-.86-.27-.59-.45.13-.62,5.18-.75,10.17-4.23,11.14-9.51.24-.66.26-2.13.73-2.39.81,1.29,1.24,3.38,1.85,4.83.46,1.08.72,2.71,1.38,3.46,1.84,1.42,5.32,2.61,8.05,3.12.47.14,2.15.12,1.91.55-1.13.74-2.99,1.11-4.36,1.69-4.04,1.49-6.06,3.3-7.16,6.47-.56,1.23-.71,3.51-1.41,4.8-.34,0-.95-2.83-1.31-3.75M53.1,150.13c-.8-7.64-3.5-16.75-8.62-22.07-4.83-4.72-15.62-8.33-23.25-8.92-2.23-.15-2.52-.38-.35-.92,7.02-1.41,14.58-2.42,20.37-6.86,7.82-5.36,12.19-18.08,12.4-28.55,1.76,5.65,2.87,13.51,5.36,19.12,5.77,11.71,17.39,14.6,30.44,16.47,2.16.35,1.46.39-.19.6-26.44,2.03-32.3,13.05-35.47,38.8-.27-.78-.46-5.54-.69-7.5M560.37,150.72c-.39-7.57-3.19-15.94-8.12-21.73-6.71-7.79-17.78-8.84-28.41-10.51,21.21-1.86,33.36-8.34,36.33-29.34.22-1.16.22-4.32.78-4.38.34-.04.84,1.44,1.18,2.87.68,3.07.84,5.79,1.88,8.83,1.79,5.32,4.64,10.66,8.79,13.99,5.57,4.42,15.45,6.99,23.37,7.68.71.1,2.35.21,2.68.41-20.16,1.75-33.27,8.02-36.32,28.73-.34,2.12-1.93,10.95-2.14,3.64M11.44,103.44c-.65-4.08-3.67-8.04-7.7-9.73-.98-.56-3.13-1.01-3.74-1.75,0-.12.21-.24.54-.38,1.46-.55,3.11-1.05,4.37-1.65,4.02-1.6,5.65-5.3,6.38-9.24.13-.49.25-.82.4-.78.97,1.58,1.31,3.98,2.32,5.65,1.7,3.25,3.96,5.13,6.94,5.48.67.14,1.95.16,2.11.81-.53,1.34-2.98,1.66-4.25,2.14-3.6.7-5.21,5.31-6.55,8.72-.35.74-.63,1.14-.79.82M591.93,96.27c-.74-4.41-4.03-7.07-8.99-8.57-.9-.39-2.55-.66-2.91-1.28.04-.11.38-.18.85-.23,4.87-.15,8.79-2.55,10.67-7.32,3.63-11.46-1.04,4.59,11.56,6.91.67.23,2.4.26,2.64.71-1.82.99-4.35,1.5-6.15,2.44-3.9,1.44-5.14,6.08-6.43,9.88-.72,2.42-.85-1.14-1.22-2.36M326.91,196.1c-.63-1.1-.77-17.94-.81-24.55-.06-10.49-.06-27.42,1.58-33.75,1.42-7.46,5.02-17.71,10.99-18.47,5.47-1.22,9.35,2.69,11.71,8.07.66,1.66,3.31,6.21.37,6.55-1.7.34-3.4,1.93-4.23,3.23-1.88,2.49-1.72,11.02-1.9,15.14-.11,4.94-.29,13.68-.38,18.66-.02.72.12.99,1.12,1.09,2.55.25,5.34.12,7.84.82,1.87.54,1.94,1.73.62,2.26-3.51,1.36-8.97.1-12.04,2.01-.55.66-.04,1.26,1.42,1.63,2.37.95,11.29-.13,11.62,2.52-.2,2.4-14.01,1.33-16.68,1.91-2.85.27-4.1,2.35.32,2.74,4.69.58,9.67.21,14.32.96,2.06.37,2.22,1.03,2.02,1.97-.17.51-.79.76-2.69.91-3.85.25-8.45.18-12.19.29-.91.02-1.82.05-2.74.1-1.37.08-2.84.23-3.61.47-.52.17-.96.36-1.09.87-.18,2.09,7.45,1.43,9.28,1.62,3.24.03,6.14-.04,9.2.15,1.72.08,3.95.39,3.02,2.05-.98,1.12-1.92.93-4.26,1.24-2.58.2-5.03.25-7.63.32-4.1,0-12.33.53-15.16-.77l-.03-.03Z"/>
  </g>
</svg>